<?xml version="1.0" encoding="UTF-8"?><svg id="Logo_Top" xmlns="http://www.w3.org/2000/svg" viewBox="0 0 500 500"><defs><style>.cls-1{fill:#ccc;}.cls-2{fill:#fff;}.cls-3{fill:#76cbff;}.cls-4{fill:#ffb55c;}</style></defs><path class="cls-4" d="M235.43,212.17h-8.08v28.1h-9.66v-69.01h18.24c9.76,0,19.42,5.82,19.42,20.11s-9.46,20.8-19.91,20.8ZM235.23,180.73h-7.89v22.08h8.18c5.62,0,9.86-3.65,9.86-11.14s-4.63-10.94-10.15-10.94Z"/><path class="cls-4" d="M278.6,258.51h-9.27l5.62-18.24-14.39-51.76h10.06l6.01,24.55c.99,3.94,2.56,11.44,3.06,14.1.49-2.66,2.17-10.25,3.16-14.2l6.11-24.45h10.05l-20.4,69.99Z"/><path class="cls-4" d="M336.17,240.27l-10.45-30.07h-7.98v30.07h-9.66v-69.01h19.42c10.05,0,19.22,5.42,19.22,19.12,0,9.96-4.34,15.58-10.84,18.14l11.04,31.74h-10.74ZM326.71,180.63h-8.97v20.31h8.97c6.21,0,10.05-3.06,10.05-10.25s-4.24-10.06-10.05-10.06Z"/><path class="cls-4" d="M372.05,241.35c-10.74,0-18.34-8.58-18.34-26.72s7.2-27.21,18.73-27.21,18.53,8.77,18.53,26.81-7.49,27.11-18.93,27.11ZM372.25,196.5c-5.91,0-8.97,6.11-8.97,17.94s3.16,17.84,9.07,17.84,9.07-7.1,9.07-17.84c0-11.73-3.25-17.94-9.17-17.94Z"/><path class="cls-4" d="M417,241.35c-10.74,0-18.34-8.58-18.34-26.72s7.2-27.21,18.73-27.21,18.53,8.77,18.53,26.81-7.49,27.11-18.93,27.11ZM417.2,196.5c-5.91,0-8.97,6.11-8.97,17.94s3.16,17.84,9.07,17.84,9.07-7.1,9.07-17.84c0-11.73-3.25-17.94-9.17-17.94Z"/><path class="cls-4" d="M490.54,240.27v-31.84c0-8.58-.69-12.03-5.42-12.03-2.96,0-5.82,1.67-7.69,4.73v39.14h-9.46v-31.84c0-8.58-.69-12.03-5.42-12.03-2.96,0-5.82,1.67-7.69,4.73v39.14h-9.46v-51.76h9.46v3.55c2.07-2.66,5.22-4.63,9.66-4.63,5.13,0,8.28,1.77,10.45,5.52,3.65-4.14,7.49-5.52,12.13-5.52,10.35,0,12.91,6.7,12.91,20.4v32.43h-9.46Z"/><path class="cls-3" d="M231.68,336.8c-8.67,0-14.29-4.54-18.24-11.24l7.59-6.11c3.75,5.91,7,7.69,11.24,7.69,5.23,0,8.28-3.15,8.28-8.77,0-5.32-2.27-8.38-11.53-14.49-7.79-5.12-13.9-10.15-13.9-21,0-10.06,6.7-17.25,17.45-17.25,7.99,0,12.62,3.35,16.76,9.37l-7.1,6.31c-3.35-4.44-5.62-6.01-9.96-6.01-4.63,0-7.2,2.96-7.2,7.29,0,5.13,2.37,7.99,10.05,12.91,8.58,5.52,15.38,10.84,15.38,22.38s-6.61,18.93-18.83,18.93Z"/><path class="cls-3" d="M279.59,334.43c-2.27,1.48-4.93,2.37-8.48,2.37-6.9,0-9.96-4.83-9.96-13.21v-30.76h-5.62v-8.87h5.62v-15.08l9.46-5.03v20.11h9.96v8.87h-9.96v29.87c0,3.65,1.38,5.13,3.94,5.13s4.73-.99,6.11-2.17l-1.08,8.77Z"/><path class="cls-3" d="M313.3,335.71v-3.55c-2.07,2.66-5.62,4.63-10.06,4.63-9.96,0-13.5-6.41-13.5-19.42v-33.42h9.46v31.84c0,8.58,1.68,12.03,6.41,12.03,2.96,0,5.82-1.68,7.69-4.73v-39.14h9.46v51.76h-9.46Z"/><path class="cls-3" d="M357.46,335.71v-3.45c-2.46,2.66-5.03,4.54-9.66,4.54-9.37,0-15.58-6.9-15.58-27.5,0-17.25,6.01-26.42,16.27-26.42,3.65,0,6.41,1.18,8.97,3.84v-17.94l9.46-4.93v71.87h-9.46ZM357.46,296.38c-2.07-3.15-5.22-4.63-8.18-4.63-4.93,0-7.49,4.83-7.49,17.05,0,13.51,2.56,19.12,7.99,19.12,3.15,0,6.01-1.97,7.69-4.73v-26.81Z"/><path class="cls-3" d="M383.38,275.88c-3.25,0-5.91-2.66-5.91-5.82s2.66-5.91,5.91-5.91,5.82,2.66,5.82,5.91-2.66,5.82-5.82,5.82ZM378.65,335.71v-51.76h9.46v51.76h-9.46Z"/><path class="cls-3" d="M416.4,336.8c-10.74,0-18.34-8.58-18.34-26.72s7.2-27.21,18.73-27.21,18.53,8.77,18.53,26.81-7.49,27.11-18.93,27.11ZM416.6,291.95c-5.91,0-8.97,6.11-8.97,17.94s3.16,17.84,9.07,17.84,9.07-7.1,9.07-17.84c0-11.73-3.25-17.94-9.17-17.94Z"/><polygon class="cls-2" points="53.02 332.1 5.62 250 53.02 167.9 147.82 167.9 195.22 250 147.82 332.1 53.02 332.1"/><path class="cls-1" d="M145.01,172.77l44.59,77.23-44.59,77.23H55.83L11.24,250l44.59-77.23h89.18M150.63,163.03H50.21l-2.81,4.87L2.81,245.13l-2.81,4.87,2.81,4.87,44.59,77.23,2.81,4.87h100.42l2.81-4.87,44.59-77.23,2.81-4.87-2.81-4.87-44.59-77.23-2.81-4.87h0Z"/><path class="cls-4" d="M116.08,172.77c22.65,24.49,27.84,61.8,10.28,92.21-14.49,25.09-40.78,39.12-67.81,39.12-5.73,0-11.49-.63-17.18-1.92l-30.12-52.18,44.59-77.23h60.25M120.34,163.03H50.21l-2.81,4.87L2.81,245.13l-2.81,4.87,2.81,4.87,30.12,52.18,2.13,3.69,4.15.94c6.33,1.43,12.83,2.16,19.34,2.16,15.18,0,30.18-3.95,43.4-11.41,13.62-7.69,24.98-18.96,32.84-32.58,4.83-8.36,8.23-17.36,10.1-26.75,1.81-9.08,2.17-18.36,1.07-27.59-1.09-9.12-3.58-17.97-7.4-26.32-3.88-8.46-9.04-16.21-15.34-23.02l-2.89-3.13h0Z"/><path class="cls-3" d="M132.65,240.79c8.09,0,16.3,2.06,23.81,6.4,9.89,5.71,16.96,14.42,20.72,24.33l-32.17,55.72h-40.26c-19.69-14.12-25.83-41.16-13.46-62.58,8.84-15.3,24.87-23.86,41.36-23.86M132.65,231.05c-9.91,0-19.71,2.58-28.34,7.45-8.9,5.03-16.32,12.38-21.45,21.28-7.17,12.42-9.44,26.98-6.37,40.98,3.04,13.91,11.07,26.12,22.59,34.38l2.54,1.82h49.01l2.81-4.87,32.17-55.72,2.31-4.01-1.64-4.32c-4.68-12.3-13.54-22.71-24.96-29.3-8.73-5.04-18.64-7.7-28.68-7.7h0Z"/><path class="cls-4" d="M136.85,226.31c-.03,6.5-.87,13.03-2.56,19.46h10.03c.21-.89.4-1.78.58-2.68,1.11-5.54,1.67-11.15,1.69-16.78h-9.74Z"/></svg>